<svg width="352" height="318" viewBox="0 0 352 318" fill="none" xmlns="http://www.w3.org/2000/svg">
<g clip-path="url(#clip0)">
<path d="M218.703 184.291H89.7704C85.5308 184.286 81.4661 182.596 78.4679 179.592C75.4698 176.587 73.7832 172.514 73.7783 168.264V16.5263C73.7832 12.277 75.4698 8.2034 78.4679 5.19903C81.466 2.19469 85.5307 0.504906 89.7701 0.500031H209.546L234.695 20.587V168.264C234.69 172.513 233.004 176.587 230.005 179.592C227.007 182.596 222.942 184.286 218.703 184.291Z" fill="#E6E6E6" stroke="black"/>
<path d="M81.8234 8.56149C83.9314 6.44904 86.7894 5.26095 89.7701 5.25751H207.886L229.947 22.879V168.264C229.944 171.252 228.758 174.117 226.65 176.229C224.542 178.342 221.684 179.53 218.703 179.533H89.7704C86.7895 179.53 83.9315 178.342 81.8234 176.229C79.7153 174.117 78.5293 171.252 78.5259 168.264V16.5263C78.5293 13.5383 79.7153 10.674 81.8234 8.56149Z" fill="white" stroke="black"/>
<path d="M193.626 48.879H134.924C134.564 48.879 134.207 48.8078 133.874 48.6695C133.54 48.5312 133.238 48.3285 132.983 48.073C132.728 47.8174 132.525 47.514 132.387 47.1802C132.249 46.8463 132.178 46.4884 132.178 46.127C132.178 45.7656 132.249 45.4077 132.387 45.0739C132.525 44.74 132.728 44.4366 132.983 44.181C133.238 43.9255 133.54 43.7228 133.874 43.5845C134.207 43.4462 134.564 43.375 134.924 43.375H193.626C193.987 43.375 194.344 43.4462 194.677 43.5845C195.01 43.7228 195.313 43.9255 195.568 44.181C195.823 44.4366 196.025 44.74 196.163 45.0739C196.301 45.4077 196.372 45.7656 196.372 46.127C196.372 46.4884 196.301 46.8463 196.163 47.1802C196.025 47.514 195.823 47.8174 195.568 48.073C195.313 48.3285 195.01 48.5312 194.677 48.6695C194.344 48.8078 193.987 48.879 193.626 48.879Z" fill="#CCCCCC"/>
<path d="M204.955 58.1671H134.924C134.196 58.1671 133.498 57.8772 132.983 57.361C132.468 56.8449 132.178 56.145 132.178 55.4151C132.178 54.6852 132.468 53.9852 132.983 53.4691C133.498 52.953 134.196 52.6631 134.924 52.6631H204.955C205.683 52.6631 206.381 52.953 206.896 53.4691C207.412 53.9852 207.701 54.6852 207.701 55.4151C207.701 56.145 207.412 56.8449 206.896 57.361C206.381 57.8772 205.683 58.1671 204.955 58.1671Z" fill="#CCCCCC"/>
<path d="M193.626 90.5033H134.924C134.196 90.5033 133.498 90.2133 132.983 89.6972C132.468 89.1811 132.178 88.4811 132.178 87.7513C132.178 87.0214 132.468 86.3214 132.983 85.8053C133.498 85.2892 134.196 84.9992 134.924 84.9992H193.626C194.355 84.9992 195.053 85.2892 195.568 85.8053C196.083 86.3214 196.372 87.0214 196.372 87.7513C196.372 88.4811 196.083 89.1811 195.568 89.6972C195.053 90.2133 194.355 90.5033 193.626 90.5033Z" fill="#CCCCCC"/>
<path d="M204.955 99.7913H134.924C134.196 99.7913 133.498 99.5014 132.983 98.9853C132.468 98.4692 132.178 97.7692 132.178 97.0393C132.178 96.3094 132.468 95.6094 132.983 95.0933C133.498 94.5772 134.196 94.2873 134.924 94.2873H204.955C205.683 94.2873 206.381 94.5772 206.896 95.0933C207.412 95.6094 207.701 96.3094 207.701 97.0393C207.701 97.7692 207.412 98.4692 206.896 98.9853C206.381 99.5014 205.683 99.7913 204.955 99.7913Z" fill="#CCCCCC"/>
<path d="M193.626 132.128H134.924C134.196 132.128 133.498 131.838 132.983 131.321C132.468 130.805 132.178 130.105 132.178 129.376C132.178 128.646 132.468 127.946 132.983 127.43C133.498 126.913 134.196 126.623 134.924 126.623H193.626C194.355 126.623 195.053 126.913 195.568 127.43C196.083 127.946 196.372 128.646 196.372 129.376C196.372 130.105 196.083 130.805 195.568 131.321C195.053 131.838 194.355 132.128 193.626 132.128Z" fill="#CCCCCC"/>
<path d="M204.955 141.416H134.924C134.196 141.416 133.498 141.126 132.983 140.61C132.468 140.093 132.178 139.393 132.178 138.664C132.178 137.934 132.468 137.234 132.983 136.718C133.498 136.202 134.196 135.912 134.924 135.912H204.955C205.683 135.912 206.381 136.202 206.896 136.718C207.412 137.234 207.701 137.934 207.701 138.664C207.701 139.393 207.412 140.093 206.896 140.61C206.381 141.126 205.683 141.416 204.955 141.416Z" fill="#CCCCCC"/>
<path d="M110.48 60.4979C115.84 60.4979 120.186 56.143 120.186 50.771C120.186 45.399 115.84 41.0441 110.48 41.0441C105.119 41.0441 100.773 45.399 100.773 50.771C100.773 56.143 105.119 60.4979 110.48 60.4979Z" fill="#EF3A5F"/>
<path d="M109.518 54.4815C109.299 54.4819 109.087 54.4111 108.912 54.2798L108.901 54.2716L106.62 52.523C106.407 52.359 106.267 52.1169 106.232 51.8499C106.197 51.5829 106.269 51.3129 106.433 51.0992C106.596 50.8855 106.838 50.7456 107.104 50.7103C107.371 50.6749 107.64 50.7469 107.853 50.9106L109.331 52.046L112.823 47.4814C112.904 47.3755 113.004 47.2867 113.12 47.22C113.235 47.1533 113.362 47.1099 113.494 47.0925C113.626 47.075 113.76 47.0838 113.889 47.1182C114.017 47.1527 114.138 47.2122 114.243 47.2933L114.244 47.2935L114.222 47.3237L114.244 47.2935C114.457 47.4576 114.597 47.6997 114.632 47.9667C114.667 48.2336 114.595 48.5037 114.432 48.7175L110.325 54.0841C110.23 54.2078 110.108 54.3078 109.968 54.3765C109.828 54.4452 109.674 54.4807 109.518 54.4803L109.518 54.4815Z" fill="white"/>
<path d="M111.479 102.122C116.84 102.122 121.186 97.7673 121.186 92.3953C121.186 87.0233 116.84 82.6684 111.479 82.6684C106.118 82.6684 101.772 87.0233 101.772 92.3953C101.772 97.7673 106.118 102.122 111.479 102.122Z" fill="#CCCCCC"/>
<path d="M110.48 143.746C115.84 143.746 120.186 139.392 120.186 134.02C120.186 128.648 115.84 124.293 110.48 124.293C105.119 124.293 100.773 128.648 100.773 134.02C100.773 139.392 105.119 143.746 110.48 143.746Z" fill="#CCCCCC"/>
<mask id="path-13-inside-1" fill="white">
<path d="M234.699 21.0013H214.745C213.288 21.0013 211.891 20.4214 210.861 19.3892C209.831 18.357 209.252 16.957 209.252 15.4972V0.7285C209.252 0.663841 209.271 0.600485 209.305 0.545709C209.339 0.490933 209.388 0.446949 209.446 0.418801C209.504 0.390652 209.569 0.379478 209.633 0.386562C209.697 0.393645 209.758 0.418699 209.809 0.458849L234.912 20.3876C234.968 20.432 235.009 20.4926 235.029 20.5612C235.049 20.6298 235.047 20.7029 235.023 20.7703C235 20.8378 234.956 20.8963 234.898 20.9376C234.84 20.979 234.771 21.0013 234.699 21.0013Z"/>
</mask>
<path d="M234.699 21.0013H214.745C213.288 21.0013 211.891 20.4214 210.861 19.3892C209.831 18.357 209.252 16.957 209.252 15.4972V0.7285C209.252 0.663841 209.271 0.600485 209.305 0.545709C209.339 0.490933 209.388 0.446949 209.446 0.418801C209.504 0.390652 209.569 0.379478 209.633 0.386562C209.697 0.393645 209.758 0.418699 209.809 0.458849L234.912 20.3876C234.968 20.432 235.009 20.4926 235.029 20.5612C235.049 20.6298 235.047 20.7029 235.023 20.7703C235 20.8378 234.956 20.8963 234.898 20.9376C234.84 20.979 234.771 21.0013 234.699 21.0013Z" fill="#E6E6E6"/>
<path d="M234.699 21.0013L234.699 20.0013H234.699V21.0013ZM214.745 21.0013V22.0013V21.0013ZM209.252 0.7285H210.252V0.728495L209.252 0.7285ZM209.809 0.458849L210.431 -0.324359L210.431 -0.324362L209.809 0.458849ZM234.912 20.3876L234.291 21.1708L234.291 21.1708L234.912 20.3876ZM234.699 20.0013H214.745V22.0013H234.699V20.0013ZM214.745 20.0013C213.554 20.0013 212.412 19.5272 211.569 18.6828L210.153 20.0955C211.371 21.3155 213.022 22.0013 214.745 22.0013V20.0013ZM211.569 18.6828C210.726 17.8383 210.252 16.6924 210.252 15.4972H208.252C208.252 17.2215 208.936 18.8756 210.153 20.0955L211.569 18.6828ZM210.252 15.4972V0.7285H208.252V15.4972H210.252ZM210.252 0.728495C210.252 0.851285 210.218 0.971816 210.153 1.07626L208.457 0.0151597C208.323 0.229155 208.252 0.476396 208.252 0.728504L210.252 0.728495ZM210.153 1.07626C210.087 1.1807 209.994 1.2648 209.882 1.31871L209.01 -0.481108C208.783 -0.370905 208.591 -0.198838 208.457 0.0151597L210.153 1.07626ZM209.882 1.31871C209.771 1.37263 209.647 1.39412 209.524 1.38052L209.743 -0.607394C209.492 -0.635164 209.238 -0.591328 209.01 -0.481108L209.882 1.31871ZM209.524 1.38052C209.4 1.36693 209.284 1.31888 209.187 1.24206L210.431 -0.324362C210.233 -0.481479 209.994 -0.579635 209.743 -0.607394L209.524 1.38052ZM209.187 1.24206L234.291 21.1708L235.534 19.6044L210.431 -0.324359L209.187 1.24206ZM234.291 21.1708C234.184 21.0861 234.106 20.9704 234.069 20.8399L235.989 20.2825C235.912 20.0149 235.753 19.7778 235.534 19.6044L234.291 21.1708ZM234.069 20.8399C234.031 20.7094 234.034 20.5705 234.079 20.4422L235.968 21.0985C236.06 20.8353 236.067 20.5501 235.989 20.2825L234.069 20.8399ZM234.079 20.4422C234.123 20.3139 234.207 20.2023 234.318 20.1231L235.478 21.7522C235.706 21.5903 235.877 21.3617 235.968 21.0985L234.079 20.4422ZM234.318 20.1231C234.429 20.044 234.562 20.0013 234.699 20.0013L234.699 22.0013C234.979 22.0013 235.251 21.9141 235.478 21.7522L234.318 20.1231Z" fill="black" mask="url(#path-13-inside-1)"/>
<path d="M99.6229 213.221L23.3392 229.334C21.1347 229.797 18.8369 229.365 16.95 228.133C15.0631 226.9 13.7411 224.968 13.274 222.76L0.183863 160.527C-0.278217 158.318 0.153024 156.015 1.38298 154.125C2.61293 152.234 4.54114 150.909 6.7446 150.441L83.0283 134.328C85.2328 133.865 87.5305 134.297 89.4175 135.53C91.3044 136.762 92.6264 138.694 93.0935 140.903L106.184 203.135C106.646 205.344 106.214 207.647 104.985 209.538C103.755 211.429 101.826 212.753 99.6229 213.221Z" fill="white"/>
<path d="M99.6229 213.221L23.3392 229.334C21.1347 229.797 18.8369 229.365 16.95 228.133C15.0631 226.9 13.7411 224.968 13.274 222.76L0.183863 160.527C-0.278217 158.318 0.153024 156.015 1.38298 154.125C2.61293 152.234 4.54114 150.909 6.7446 150.441L83.0283 134.328C85.2328 133.865 87.5305 134.297 89.4175 135.53C91.3044 136.762 92.6264 138.694 93.0935 140.903L106.184 203.135C106.646 205.344 106.214 207.647 104.985 209.538C103.755 211.429 101.826 212.753 99.6229 213.221ZM6.95074 151.421C5.00653 151.834 3.30517 153.003 2.21992 154.671C1.13467 156.34 0.754149 158.371 1.16185 160.321L14.252 222.553C14.6641 224.501 15.8306 226.206 17.4955 227.294C19.1605 228.381 21.1879 228.763 23.1331 228.354L99.4168 212.241C101.361 211.828 103.062 210.659 104.148 208.991C105.233 207.323 105.613 205.291 105.206 203.342L92.1155 141.109C91.7034 139.161 90.5369 137.456 88.872 136.368C87.207 135.281 85.1796 134.9 83.2344 135.308L6.95074 151.421Z" fill="black"/>
<path d="M78.2883 154.848L39.7889 162.98C39.452 163.058 39.0979 163.006 38.7984 162.832C38.4988 162.659 38.276 162.378 38.175 162.047C38.1289 161.874 38.1184 161.694 38.1441 161.517C38.1698 161.339 38.2313 161.169 38.3248 161.017C38.4182 160.864 38.5417 160.733 38.6877 160.63C38.8337 160.526 38.9991 160.454 39.1738 160.417L78.3638 152.14C79.894 153.004 79.4104 154.611 78.2878 154.848L78.2883 154.848Z" fill="#CCCCCC"/>
<path d="M79.7116 161.615L41.2122 169.747C40.8753 169.826 40.5213 169.773 40.2217 169.6C39.9221 169.426 39.6994 169.146 39.5984 168.814C39.5522 168.641 39.5417 168.461 39.5674 168.284C39.5932 168.107 39.6547 167.937 39.7481 167.784C39.8416 167.632 39.9651 167.5 40.111 167.397C40.257 167.294 40.4224 167.221 40.5972 167.185L79.7872 158.907C81.3174 159.771 80.8337 161.378 79.7111 161.615L79.7116 161.615Z" fill="#CCCCCC"/>
<path d="M33.7003 175.358L21.9507 177.84C21.567 177.92 21.167 177.845 20.8386 177.631C20.5101 177.416 20.28 177.08 20.1988 176.695L17.2762 162.801C17.1957 162.416 17.2707 162.016 17.4848 161.687C17.6989 161.357 18.0346 161.127 18.4181 161.045L30.1677 158.564C30.5515 158.483 30.9514 158.558 31.2798 158.773C31.6082 158.987 31.8383 159.324 31.9197 159.708L34.8423 173.602C34.9228 173.987 34.8477 174.388 34.6336 174.717C34.4195 175.046 34.0839 175.277 33.7003 175.358V175.358Z" fill="#CCCCCC"/>
<path d="M82.5143 175.495L23.7571 187.905C23.4202 187.984 23.0662 187.931 22.7666 187.758C22.4671 187.585 22.2443 187.304 22.1433 186.972C22.0972 186.8 22.0866 186.619 22.1124 186.442C22.1381 186.265 22.1996 186.095 22.293 185.942C22.3865 185.79 22.51 185.658 22.656 185.555C22.8019 185.452 22.9674 185.38 23.1421 185.343L82.5903 172.786C84.1205 173.65 83.6369 175.258 82.5143 175.495Z" fill="#CCCCCC"/>
<path d="M83.9381 182.264L25.181 194.675C24.8441 194.753 24.49 194.7 24.1905 194.527C23.8909 194.354 23.6681 194.073 23.5671 193.742C23.521 193.569 23.5104 193.388 23.5362 193.211C23.5619 193.034 23.6234 192.864 23.7169 192.712C23.8103 192.559 23.9338 192.427 24.0798 192.324C24.2258 192.221 24.3912 192.149 24.5659 192.112L84.0141 179.555C85.5444 180.419 85.0607 182.027 83.9381 182.264Z" fill="#CCCCCC"/>
<path d="M85.3609 189.029L26.6038 201.439C26.2669 201.518 25.9129 201.465 25.6133 201.292C25.3137 201.119 25.091 200.838 24.99 200.506C24.9438 200.333 24.9333 200.153 24.959 199.976C24.9848 199.799 25.0463 199.629 25.1397 199.476C25.2332 199.324 25.3567 199.192 25.5026 199.089C25.6486 198.986 25.814 198.914 25.9888 198.877L85.437 186.32C86.9672 187.184 86.4835 188.791 85.3609 189.029Z" fill="#CCCCCC"/>
<path d="M86.7848 195.797L28.0277 208.208C27.6907 208.286 27.3367 208.234 27.0371 208.06C26.7376 207.887 26.5148 207.606 26.4138 207.275C26.3677 207.102 26.3571 206.922 26.3829 206.745C26.4086 206.567 26.4701 206.397 26.5635 206.245C26.657 206.092 26.7805 205.961 26.9265 205.858C27.0725 205.754 27.2379 205.682 27.4126 205.645L86.8608 193.089C88.391 193.953 87.9074 195.56 86.7848 195.797Z" fill="#CCCCCC"/>
<path d="M88.2076 202.562L29.4505 214.973C29.1136 215.051 28.7596 214.999 28.46 214.826C28.1604 214.652 27.9376 214.372 27.8367 214.04C27.7905 213.867 27.78 213.687 27.8057 213.51C27.8315 213.333 27.8929 213.163 27.9864 213.01C28.0799 212.858 28.2033 212.726 28.3493 212.623C28.4953 212.52 28.6607 212.447 28.8354 212.411L88.2837 199.854C89.8139 200.718 89.3302 202.325 88.2076 202.562Z" fill="#CCCCCC"/>
<path d="M98.7087 172.506C98.7929 172.272 98.8953 172.044 99.0149 171.826L99.0162 171.824C99.4871 170.981 100.203 170.302 101.068 169.877C101.933 169.452 102.907 169.301 103.86 169.444C104.813 169.587 105.7 170.017 106.403 170.678C107.106 171.339 107.592 172.198 107.796 173.143C107.999 174.087 107.911 175.071 107.543 175.964C107.175 176.857 106.545 177.617 105.736 178.141C104.927 178.666 103.978 178.932 103.015 178.903C102.052 178.874 101.12 178.552 100.344 177.979L100.118 177.813L99.8577 177.919L73.7564 188.607C73.0559 188.894 72.2814 188.945 71.5493 188.753C70.8172 188.562 70.1666 188.137 69.6956 187.543L69.3038 187.854L69.6956 187.543L63.3529 179.546L69.9448 174.644L73.824 178.665L74.0244 178.873L74.3046 178.803L98.3589 172.822L98.6182 172.757L98.7087 172.506Z" fill="white" stroke="black"/>
<path d="M16.3225 224.333L16.3256 224.332C17.0056 224.122 17.6313 223.765 18.1587 223.286C18.6861 222.807 19.1023 222.217 19.378 221.56C19.6537 220.902 19.7821 220.191 19.7541 219.478C19.7262 218.765 19.5426 218.067 19.2163 217.433L19.1169 217.24L19.1903 217.035L35.5437 171.487L25.0797 169.628L12.5439 215.152L12.4909 215.344L12.3202 215.447C11.2933 216.067 10.5287 217.043 10.1717 218.191C9.81475 219.339 9.89023 220.577 10.3838 221.673M16.3225 224.333L10.3838 221.673M16.3225 224.333C15.1795 224.695 13.9436 224.624 12.8492 224.134C11.7547 223.644 10.8774 222.768 10.3838 221.673M16.3225 224.333L9.92796 221.878L10.3838 221.673" fill="white" stroke="black"/>
<path d="M34.1123 179.282L22.7619 174.917C22.439 174.793 22.1465 174.6 21.9045 174.353C21.6625 174.105 21.4766 173.808 21.3595 173.482C21.2424 173.156 21.1967 172.808 21.2258 172.463C21.2548 172.117 21.3578 171.782 21.5277 171.48L27.4821 160.901C28.1258 159.249 29.3968 157.92 31.0166 157.206C32.6364 156.491 34.4728 156.45 36.1232 157.09C37.7735 157.73 39.1032 159 39.8207 160.621C40.5382 162.242 40.5849 164.082 39.9507 165.738L37.3243 177.555C37.249 177.894 37.1018 178.212 36.8928 178.488C36.6837 178.764 36.4177 178.992 36.1129 179.156C35.8081 179.32 35.4716 179.416 35.1264 179.438C34.7812 179.46 34.4353 179.407 34.1123 179.282V179.282Z" fill="#EF3A5F"/>
<path d="M68.208 288.191L65.4166 310.872L60.2319 310.873L60.231 288.191L68.208 288.191Z" fill="white" stroke="black"/>
<path d="M58.6693 316.824L58.669 309.868L70.2346 309.868H70.2347H70.2351C71.1791 309.868 72.1139 310.054 72.986 310.416C73.8582 310.778 74.6507 311.309 75.3184 311.978C75.986 312.647 76.5157 313.441 76.877 314.315C77.2066 315.112 77.3903 315.962 77.4201 316.823L58.6693 316.824Z" fill="white" stroke="black"/>
<path d="M33.7256 288.191L30.9341 310.872L25.7495 310.873L25.7486 288.191L33.7256 288.191Z" fill="white" stroke="black"/>
<path d="M24.1869 316.824L24.1865 309.868L35.7522 309.868H35.7522H35.7527C36.6967 309.868 37.6314 310.054 38.5036 310.416C39.3758 310.778 40.1683 311.309 40.836 311.978C41.5036 312.647 42.0332 313.441 42.3946 314.315C42.7242 315.112 42.9079 315.962 42.9377 316.823L24.1869 316.824Z" fill="white" stroke="black"/>
<path d="M22.1724 299.504L22.1724 299.504C22.1611 299.741 22.1981 299.978 22.2809 300.201C22.3637 300.423 22.4906 300.626 22.654 300.798C22.8174 300.97 23.0138 301.106 23.2312 301.2C23.4487 301.293 23.6828 301.341 23.9192 301.341H31.6717C32.0767 301.34 32.469 301.199 32.7821 300.941C33.0946 300.684 33.3089 300.326 33.3882 299.928C33.3884 299.927 33.3885 299.926 33.3886 299.926L44.1019 243.35C44.1022 243.349 44.1025 243.347 44.1028 243.345C44.1529 243.057 44.3043 242.796 44.5299 242.609C44.7543 242.423 45.0373 242.323 45.3284 242.327C45.6184 242.322 45.9009 242.421 46.1255 242.604C46.3515 242.789 46.504 243.048 46.5562 243.335C46.5565 243.337 46.5568 243.339 46.5571 243.341L57.694 299.805C57.6942 299.805 57.6943 299.806 57.6945 299.807C57.7809 300.225 58.0166 300.598 58.3573 300.854C58.6985 301.111 59.1215 301.234 59.5466 301.201L59.5468 301.2M22.1724 299.504L59.5866 301.699L59.5468 301.2M22.1724 299.504L25.8336 220.677L62.5733 219.717M22.1724 299.504L63.0281 219.205M59.5468 301.2L68.2552 300.503L59.5468 301.2ZM62.5733 219.717L69.8567 298.588L69.8568 298.589C69.8787 298.82 69.8545 299.054 69.7855 299.276C69.7165 299.498 69.6042 299.704 69.4551 299.882C69.3061 300.06 69.1232 300.207 68.9172 300.313C68.7112 300.42 68.4862 300.484 68.2553 300.503L70.3546 298.542L63.0281 219.205M62.5733 219.717L63.0412 219.705L63.0281 219.205M62.5733 219.717L62.5302 219.251L63.0281 219.205" fill="white" stroke="black"/>
<path d="M57.649 137.173C57.649 143.691 52.3765 148.973 45.8748 148.973C39.3731 148.973 34.1006 143.691 34.1006 137.173C34.1006 130.655 39.3731 125.373 45.8748 125.373C52.3765 125.373 57.649 130.655 57.649 137.173Z" fill="white" stroke="black"/>
<path d="M41.7591 229.482C35.909 229.482 29.9001 227.941 24.9188 223.385C24.6537 223.144 24.449 222.844 24.3214 222.509C24.1938 222.174 24.1469 221.814 24.1844 221.457C24.7176 216.656 27.3039 191.87 25.8474 175.313C25.5631 172.22 26.0001 169.103 27.1237 166.209C28.2473 163.314 30.0268 160.721 32.3218 158.634C34.5767 156.552 37.2836 155.023 40.2291 154.168C43.1745 153.313 46.2778 153.156 49.2942 153.709H49.2943C49.4472 153.737 49.6 153.766 49.7529 153.795C59.5797 155.701 66.4073 164.814 65.6348 174.994C64.5074 189.847 63.4968 209.938 65.0837 221.3C65.1494 221.765 65.0684 222.239 64.852 222.656C64.6356 223.072 64.2947 223.41 63.8769 223.623C60.2663 225.451 51.2203 229.482 41.7591 229.482Z" fill="#EF3A5F"/>
<path d="M57.7755 180.168C57.4875 179.976 57.2442 179.724 57.0623 179.429C56.8804 179.134 56.7641 178.803 56.7213 178.459L55.2259 166.445C54.7512 164.737 54.972 162.909 55.8397 161.364C56.7075 159.818 58.1515 158.68 59.8551 158.2C61.5587 157.719 63.383 157.935 64.9278 158.801C66.4727 159.666 67.6122 161.11 68.0964 162.816L73.022 173.914C73.1625 174.23 73.2333 174.574 73.2295 174.92C73.2257 175.267 73.1474 175.609 72.9999 175.922C72.8524 176.236 72.6392 176.514 72.3748 176.737C72.1104 176.961 71.8011 177.125 71.4678 177.218L59.7552 180.484C59.422 180.577 59.0726 180.597 58.7309 180.542C58.3892 180.488 58.0634 180.36 57.7755 180.168Z" fill="#EF3A5F"/>
<path d="M41.5902 149.299C40.4284 149.321 39.2739 149.111 38.1933 148.683C37.7179 148.5 37.2243 148.349 36.7497 148.165C32.5586 146.542 29.7977 142.069 29.6988 137.568C29.6 133.067 31.9262 128.698 35.3805 125.818C38.8348 122.939 43.3089 121.461 47.789 121.119C52.6149 120.751 58.0489 121.977 60.7455 126.004C61.4633 127.076 61.9653 128.377 61.54 129.671C61.4126 130.062 61.1851 130.412 60.8802 130.687C59.6759 131.761 58.4753 130.953 57.2476 130.882C55.5602 130.784 54.0447 132.153 53.4999 133.756C52.9552 135.36 53.195 137.125 53.6348 138.76C53.9699 139.744 54.1811 140.766 54.2636 141.803C54.2991 142.323 54.2016 142.843 53.9802 143.314C53.7589 143.786 53.4211 144.192 52.9988 144.496C51.9444 145.135 50.5597 144.765 49.5046 144.128C48.4496 143.49 47.538 142.603 46.3983 142.134C45.2587 141.665 43.7276 141.769 43.0643 142.81C42.8535 143.188 42.7108 143.601 42.6428 144.029C42.0482 146.744 42.1848 146.584 41.5902 149.299V149.299Z" fill="black"/>
<path d="M338.832 214.652L270.838 252.871C268.872 253.973 266.551 254.249 264.382 253.637C262.214 253.026 260.376 251.578 259.272 249.611L228.223 194.141C227.123 192.171 226.848 189.845 227.458 187.672C228.068 185.499 229.513 183.658 231.476 182.551L299.47 144.332C301.436 143.23 303.757 142.955 305.926 143.566C308.094 144.177 309.932 145.625 311.036 147.593L342.085 203.062C343.185 205.032 343.46 207.359 342.85 209.531C342.24 211.704 340.795 213.546 338.832 214.652Z" fill="white"/>
<path d="M338.832 214.652L270.838 252.871C268.872 253.973 266.551 254.249 264.382 253.637C262.214 253.026 260.376 251.578 259.272 249.611L228.223 194.141C227.123 192.171 226.848 189.845 227.458 187.672C228.068 185.499 229.513 183.658 231.476 182.551L299.47 144.332C301.436 143.23 303.757 142.955 305.926 143.566C308.094 144.177 309.932 145.625 311.036 147.593L342.085 203.062C343.185 205.032 343.46 207.359 342.85 209.531C342.24 211.704 340.795 213.546 338.832 214.652ZM231.965 183.425C230.233 184.401 228.958 186.026 228.42 187.943C227.882 189.86 228.124 191.913 229.095 193.651L260.144 249.121C261.118 250.857 262.74 252.134 264.653 252.674C266.566 253.213 268.614 252.97 270.349 251.997L338.343 213.779C340.075 212.802 341.35 211.177 341.888 209.26C342.426 207.343 342.184 205.29 341.213 203.552L310.164 148.083C309.19 146.347 307.568 145.069 305.655 144.53C303.742 143.99 301.694 144.234 299.959 145.206L231.965 183.425Z" fill="black"/>
<path d="M301.066 165.334L266.75 184.623C266.452 184.798 266.099 184.854 265.761 184.778C265.424 184.703 265.127 184.502 264.932 184.215C264.836 184.064 264.773 183.895 264.744 183.718C264.716 183.542 264.724 183.361 264.768 183.188C264.812 183.014 264.89 182.851 264.999 182.709C265.107 182.567 265.244 182.449 265.399 182.361L300.33 162.727C302.048 163.093 302.066 164.772 301.065 165.334L301.066 165.334Z" fill="#CCCCCC"/>
<path d="M304.442 171.366L270.127 190.654C269.828 190.83 269.475 190.886 269.137 190.81C268.8 190.735 268.503 190.533 268.308 190.247C268.213 190.096 268.149 189.927 268.121 189.75C268.092 189.574 268.1 189.393 268.144 189.219C268.188 189.046 268.266 188.883 268.375 188.741C268.483 188.599 268.62 188.481 268.775 188.393L303.707 168.758C305.425 169.125 305.442 170.804 304.442 171.366L304.442 171.366Z" fill="#CCCCCC"/>
<path d="M264.631 198.258L254.158 204.145C253.816 204.337 253.412 204.385 253.034 204.278C252.657 204.172 252.337 203.92 252.145 203.578L245.213 191.193C245.021 190.85 244.973 190.445 245.079 190.067C245.186 189.689 245.437 189.368 245.779 189.176L256.252 183.289C256.594 183.097 256.998 183.049 257.375 183.156C257.753 183.262 258.073 183.514 258.265 183.856L265.197 196.241C265.389 196.584 265.436 196.989 265.33 197.367C265.224 197.745 264.973 198.066 264.631 198.258L264.631 198.258Z" fill="#CCCCCC"/>
<path d="M311.255 183.772L258.883 213.21C258.585 213.385 258.232 213.441 257.894 213.366C257.557 213.29 257.26 213.089 257.065 212.803C256.969 212.652 256.906 212.482 256.877 212.306C256.849 212.129 256.857 211.948 256.901 211.775C256.945 211.601 257.023 211.439 257.132 211.297C257.24 211.154 257.377 211.036 257.532 210.948L310.52 181.164C312.238 181.531 312.256 183.21 311.255 183.772Z" fill="#CCCCCC"/>
<path d="M314.633 189.806L262.261 219.243C261.963 219.419 261.609 219.475 261.272 219.399C260.934 219.323 260.638 219.122 260.443 218.836C260.347 218.685 260.283 218.516 260.255 218.339C260.227 218.163 260.235 217.982 260.278 217.808C260.322 217.635 260.401 217.472 260.509 217.33C260.618 217.188 260.754 217.07 260.91 216.982L313.898 187.198C315.616 187.564 315.633 189.243 314.633 189.806V189.806Z" fill="#CCCCCC"/>
<path d="M318.008 195.835L265.636 225.273C265.338 225.449 264.984 225.504 264.647 225.429C264.309 225.353 264.013 225.152 263.818 224.866C263.722 224.715 263.658 224.546 263.63 224.369C263.602 224.192 263.61 224.012 263.653 223.838C263.697 223.665 263.776 223.502 263.884 223.36C263.993 223.218 264.129 223.099 264.285 223.012L317.273 193.228C318.991 193.594 319.008 195.273 318.008 195.835Z" fill="#CCCCCC"/>
<path d="M321.385 201.868L269.013 231.306C268.715 231.482 268.361 231.537 268.024 231.462C267.686 231.386 267.39 231.185 267.195 230.899C267.099 230.748 267.035 230.579 267.007 230.402C266.979 230.225 266.987 230.045 267.03 229.871C267.074 229.698 267.153 229.535 267.261 229.393C267.37 229.251 267.506 229.132 267.662 229.045L320.65 199.261C322.368 199.627 322.385 201.306 321.385 201.868H321.385Z" fill="#CCCCCC"/>
<path d="M324.76 207.898L272.388 237.336C272.09 237.512 271.737 237.567 271.399 237.492C271.061 237.416 270.765 237.215 270.57 236.929C270.474 236.778 270.411 236.609 270.382 236.432C270.354 236.255 270.362 236.075 270.406 235.901C270.449 235.728 270.528 235.565 270.637 235.423C270.745 235.281 270.881 235.162 271.037 235.075L324.025 205.291C325.743 205.657 325.761 207.336 324.76 207.898V207.898Z" fill="#CCCCCC"/>
<path d="M315.167 230.289L315.166 230.292C314.743 231.245 313.985 232.009 313.037 232.439C312.09 232.869 311.018 232.936 310.024 232.627C309.031 232.318 308.185 231.654 307.647 230.761C307.109 229.869 306.916 228.809 307.105 227.783L307.121 227.699L307.107 227.614L304.751 212.814L310.641 208.158L311.986 223.995L312.017 224.349L312.361 224.437C312.96 224.589 313.517 224.872 313.995 225.264C314.473 225.656 314.86 226.148 315.127 226.706C315.395 227.264 315.537 227.874 315.544 228.493C315.551 229.112 315.423 229.725 315.167 230.289Z" fill="white" stroke="black"/>
<path d="M311.19 222.197L305.501 222.877C305.212 222.911 304.919 222.885 304.641 222.801C304.362 222.717 304.104 222.576 303.882 222.387C303.66 222.198 303.48 221.965 303.352 221.703C303.224 221.441 303.151 221.156 303.139 220.864L302.309 201.633L291.526 172.114C291.094 171.198 290.897 170.188 290.953 169.176C291.009 168.165 291.316 167.183 291.847 166.321C292.111 165.904 292.413 165.513 292.75 165.152C293.414 164.436 294.24 163.891 295.159 163.564C296.078 163.237 297.063 163.138 298.029 163.274C299.023 163.407 299.972 163.776 300.797 164.349C301.621 164.923 302.297 165.686 302.768 166.574L309.8 181.341C312.741 187.517 314.13 194.321 313.845 201.158L313.052 220.182C313.031 220.68 312.836 221.155 312.5 221.522C312.165 221.89 311.711 222.128 311.218 222.193L311.19 222.197Z" fill="#EF3A5F"/>
<path d="M322.206 285.585L330.734 305.055L326.322 306.996L315.397 288.58L322.206 285.585Z" fill="white" stroke="black"/>
<path d="M321.796 308.021L331.725 303.654L334.324 309.587L318.237 316.663C317.947 315.922 317.79 315.135 317.773 314.338C317.754 313.452 317.91 312.572 318.231 311.747C318.552 310.921 319.032 310.168 319.644 309.529C320.255 308.89 320.985 308.379 321.793 308.023C321.794 308.022 321.795 308.022 321.796 308.022C321.796 308.022 321.796 308.021 321.796 308.021L321.796 308.021Z" fill="white" stroke="black"/>
<path d="M260.085 311.229H255.267L252.65 289.965L260.086 289.966L260.085 311.229Z" fill="white" stroke="black"/>
<path d="M243.986 316.823C244.017 316.028 244.189 315.243 244.493 314.507C244.831 313.688 245.327 312.945 245.952 312.319C246.577 311.693 247.319 311.196 248.135 310.857C248.951 310.518 249.826 310.344 250.71 310.344H250.71H250.71H250.71L261.553 310.344L261.553 316.824L243.986 316.823Z" fill="white" stroke="black"/>
<path d="M317.123 303.922L317.123 303.922L317.12 303.914L285.036 232.166C285.035 232.164 285.035 232.163 285.034 232.162C284.935 231.934 284.768 231.742 284.556 231.613C284.342 231.483 284.094 231.422 283.844 231.44C283.595 231.458 283.357 231.553 283.164 231.711C282.972 231.87 282.833 232.084 282.767 232.324C282.767 232.325 282.767 232.326 282.767 232.327L263.218 301.628L263.218 301.628L263.216 301.635C263.117 302.005 262.89 302.328 262.576 302.545C262.261 302.762 261.88 302.859 261.501 302.819L261.498 302.819L250.823 301.749C250.403 301.705 250.016 301.498 249.745 301.172C249.474 300.847 249.34 300.429 249.371 300.006C252.762 257.744 258.1 217.992 273.991 191.955L297.617 196.597L329.914 299.657C329.915 299.658 329.915 299.659 329.915 299.66C330.037 300.067 329.995 300.505 329.798 300.881C329.602 301.258 329.266 301.543 328.863 301.674C328.863 301.675 328.863 301.675 328.863 301.675L319.098 304.82L319.097 304.82C318.715 304.944 318.302 304.921 317.936 304.755C317.571 304.589 317.281 304.292 317.123 303.922Z" fill="white" stroke="black"/>
<path d="M296.511 143.217C296.511 149.328 291.568 154.28 285.472 154.28C279.376 154.28 274.432 149.328 274.432 143.217C274.432 137.106 279.376 132.153 285.472 132.153C291.568 132.153 296.511 137.106 296.511 143.217Z" fill="white" stroke="black"/>
<path d="M272.17 193.538L272.023 193.508L271.988 193.362C270.433 186.784 270.396 179.605 271.878 172.026C272.629 168.152 274.721 164.668 277.784 162.188C280.847 159.707 284.686 158.39 288.623 158.467C292.895 158.554 296.973 160.273 300.022 163.274C303.071 166.274 304.86 170.329 305.024 174.608C305.519 187.644 300.202 198.946 300.148 199.059L300.069 199.224L272.17 193.538Z" fill="#EF3A5F"/>
<path d="M257.277 199.242L244.719 208.954L244.438 209.172L244.551 209.508C244.747 210.096 244.812 210.719 244.742 211.334C244.672 211.949 244.469 212.541 244.146 213.069C243.822 213.597 243.388 214.047 242.873 214.388C242.374 214.718 241.812 214.938 241.222 215.034L241.16 215.043C240.132 215.202 239.081 214.978 238.207 214.413C237.333 213.847 236.696 212.98 236.417 211.975C236.138 210.97 236.236 209.898 236.694 208.961C237.151 208.024 237.935 207.288 238.898 206.892L238.977 206.859L239.041 206.802L250.179 196.802L257.277 199.242Z" fill="white" stroke="black"/>
<path d="M248.496 207.785C248.063 208.042 247.553 208.134 247.058 208.047C246.563 207.959 246.116 207.697 245.796 207.308L242.145 202.884C241.96 202.66 241.822 202.399 241.742 202.119C241.662 201.838 241.64 201.544 241.679 201.255C241.717 200.966 241.814 200.688 241.965 200.438C242.116 200.189 242.316 199.973 242.554 199.804L258.237 188.69L277.16 163.618C277.694 162.758 278.435 162.045 279.314 161.544C280.193 161.044 281.183 160.771 282.193 160.751C282.686 160.748 283.178 160.791 283.662 160.879C284.623 161.05 285.527 161.452 286.3 162.049C287.072 162.646 287.688 163.421 288.097 164.309C288.524 165.219 288.729 166.218 288.694 167.223C288.659 168.228 288.385 169.21 287.895 170.088L273.884 192.827L273.853 192.877L248.496 207.785Z" fill="#EF3A5F"/>
<path d="M287.535 142.499C286.685 141.097 284.808 140.701 283.179 140.861C281.549 141.021 279.964 141.595 278.327 141.582C273.781 141.547 270.272 135.995 272.183 131.861C273.751 128.471 277.666 126.983 281.207 125.814C288.632 123.365 297.162 121.011 303.9 124.983C306.047 126.286 307.808 128.14 309.001 130.353C310.194 132.567 310.776 135.059 310.686 137.573C310.534 140.699 309.34 143.909 310.35 146.871C311.516 150.287 315.211 152.12 318.704 153.006C324.826 154.56 331.281 154.31 337.441 155.704C343.602 157.098 349.914 160.799 351.575 166.906C352.666 170.916 351.527 175.234 349.643 178.937C347.72 182.715 345.047 186.06 341.789 188.767C338.531 191.474 334.756 193.486 330.694 194.679C326.633 195.873 322.371 196.223 318.17 195.709C313.969 195.195 309.917 193.826 306.262 191.688C298.815 187.33 293.438 179.965 290.232 171.942C288.415 167.262 287.135 162.389 286.419 157.419C285.701 152.766 286.31 148.064 287.61 143.54C287.672 143.371 287.697 143.191 287.684 143.012C287.671 142.832 287.62 142.658 287.535 142.499Z" fill="black"/>
</g>
<defs>
<clipPath id="clip0">
<rect width="352" height="318" fill="white"/>
</clipPath>
</defs>
</svg>
