<svg width="234" height="214" viewBox="0 0 234 214" fill="none" xmlns="http://www.w3.org/2000/svg">
<path d="M223.215 99.774L225.391 97.1804C226.247 96.16 226.052 94.6258 224.955 93.7603C223.858 92.8948 222.269 93.0208 221.413 94.0412L219.207 96.6699C218.404 96.4572 217.527 96.6886 216.987 97.3319L194.369 124.288C194.048 124.67 194.121 125.242 194.532 125.566C194.943 125.891 195.535 125.843 195.856 125.461L213.532 104.397L216.626 106.838L193.359 134.566L190.265 132.125L193.155 128.681C193.475 128.299 193.402 127.726 192.991 127.402C192.581 127.078 191.988 127.125 191.667 127.507L188.196 131.643C188.147 131.702 188.106 131.767 188.074 131.836L185.133 138.254C184.762 139.063 185.007 139.997 185.743 140.577C186.479 141.158 187.472 141.201 188.213 140.685L194.095 136.587C194.159 136.543 194.216 136.491 194.265 136.432L223.056 102.121C223.623 101.446 223.656 100.511 223.215 99.774ZM218.475 98.5059C218.574 98.388 218.758 98.3734 218.884 98.4733L221.519 100.552C221.645 100.652 221.668 100.829 221.569 100.947L220.186 102.596L217.092 100.154L218.475 98.5058L218.475 98.5059ZM223.794 95.1442C224.07 95.3624 224.12 95.7494 223.904 96.0067L221.82 98.4898L220.817 97.6982L222.9 95.2151C223.116 94.9577 223.517 94.9259 223.794 95.1442ZM214.693 103.013L215.93 101.538L219.025 103.98L217.787 105.455L214.693 103.013ZM187.066 139.201C187.034 139.223 186.985 139.257 186.905 139.194C186.824 139.13 186.849 139.077 186.865 139.042L189.322 133.681L191.979 135.778L187.066 139.201Z" fill="#EAEAEC" fill-opacity="0.24"/>
<path d="M186.245 73.5438L198.004 82.8227C198.415 83.1468 199.008 83.0998 199.329 82.7176C199.649 82.3355 199.576 81.7629 199.166 81.4388L187.406 72.1599C186.996 71.8358 186.403 71.8828 186.082 72.2649C185.761 72.647 185.834 73.2197 186.245 73.5438Z" fill="#EAEAEC" fill-opacity="0.24"/>
<path d="M180.034 80.9449L202.164 98.4065C202.575 98.7307 203.167 98.6836 203.488 98.3015C203.809 97.9194 203.736 97.3469 203.325 97.0227L181.196 79.5611C180.785 79.2369 180.192 79.284 179.871 79.6661C179.551 80.0482 179.624 80.6208 180.034 80.9449Z" fill="#EAEAEC" fill-opacity="0.24"/>
<path d="M174.359 87.7094L196.488 105.171C196.899 105.495 197.492 105.448 197.812 105.066C198.133 104.684 198.06 104.111 197.649 103.787L175.52 86.3255C175.109 86.0014 174.516 86.0484 174.196 86.4306C173.875 86.8127 173.948 87.3853 174.359 87.7094Z" fill="#EAEAEC" fill-opacity="0.24"/>
<path d="M154.631 103.647C155.66 102.421 155.424 100.578 154.107 99.5387L153.338 98.932L156.392 95.2929L157.161 95.8996C158.478 96.9392 160.387 96.7878 161.415 95.5621C162.444 94.3363 162.208 92.4934 160.891 91.4539L160.122 90.8472L163.176 87.2081L163.945 87.8148C165.262 88.8545 167.171 88.703 168.199 87.4774C169.228 86.2517 168.992 84.4087 167.675 83.3692L166.906 82.7625L169.96 79.1234L170.729 79.7301C172.046 80.7698 173.955 80.6183 174.983 79.3926C176.012 78.1669 175.776 76.3239 174.459 75.2844L173.69 74.6777L176.744 71.0386L177.513 71.6453C178.83 72.685 180.739 72.5335 181.767 71.3079C182.796 70.0822 182.561 68.2391 181.243 67.1995L178.218 64.8123C176.9 63.7727 174.992 63.9241 173.963 65.1499C172.935 66.3756 173.17 68.2185 174.487 69.2581L175.256 69.8647L172.203 73.5038L171.434 72.8971C170.116 71.8575 168.208 72.0089 167.179 73.2346C166.151 74.4602 166.386 76.3033 167.703 77.3428L168.472 77.9495L165.418 81.5886L164.65 80.9819C163.332 79.9423 161.423 80.0937 160.395 81.3194C159.367 82.545 159.602 84.388 160.919 85.4275L161.688 86.0342L158.634 89.6733L157.866 89.0666C156.548 88.027 154.64 88.1784 153.611 89.4041C152.582 90.6299 152.818 92.4728 154.135 93.5123L154.904 94.119L151.85 97.7581L151.082 97.1514C149.764 96.1118 147.855 96.2632 146.827 97.4889C145.799 98.7145 146.034 100.557 147.351 101.597L150.376 103.984C151.694 105.024 153.603 104.873 154.631 103.647ZM175.451 66.3236C175.839 65.861 176.559 65.8038 177.057 66.1962L180.082 68.5833C180.579 68.9758 180.668 69.6714 180.28 70.134C179.891 70.5967 179.171 70.6537 178.674 70.2614L175.648 67.8742C175.151 67.4819 175.062 66.7863 175.451 66.3236ZM168.667 74.4083C169.055 73.9457 169.775 73.8886 170.272 74.281L173.298 76.6681C173.795 77.0606 173.884 77.7562 173.496 78.2187C173.107 78.6813 172.387 78.7385 171.89 78.3462L168.864 75.959C168.367 75.5667 168.278 74.871 168.667 74.4083ZM161.883 82.4931C162.271 82.0304 162.991 81.9734 163.488 82.3657L166.514 84.7529C167.011 85.1454 167.1 85.841 166.712 86.3035C166.323 86.7661 165.603 86.8232 165.106 86.4309L162.08 84.0437C161.583 83.6514 161.494 82.9558 161.883 82.4931ZM155.099 90.5778C155.487 90.1152 156.207 90.0581 156.704 90.4504L159.73 92.8376C160.227 93.2301 160.316 93.9257 159.927 94.3883C159.539 94.851 158.819 94.908 158.322 94.5157L155.296 92.1285C154.799 91.7362 154.71 91.0405 155.099 90.5778ZM148.315 98.6626C148.703 98.1999 149.423 98.1429 149.92 98.5352L152.946 100.922C153.443 101.315 153.532 102.01 153.143 102.473C152.755 102.936 152.035 102.993 151.538 102.6L148.512 100.213C148.015 99.8209 147.926 99.1253 148.315 98.6626Z" fill="#EAEAEC" fill-opacity="0.24"/>
<path d="M217.252 86.9289L186.472 62.6416C184.874 61.3806 182.544 61.4685 181.167 62.8417C180.813 63.195 180.835 63.7695 181.217 64.1248C181.601 64.4803 182.196 64.4818 182.551 64.1284C183.267 63.4143 184.479 63.3691 185.311 64.0254L216.091 88.3128C216.981 89.0154 217.14 90.2609 216.445 91.0891L181.653 132.552C180.958 133.381 179.668 133.483 178.777 132.78L147.998 108.493C147.166 107.837 146.965 106.676 147.541 105.851C147.825 105.443 147.703 104.877 147.266 104.586C146.83 104.295 146.245 104.39 145.96 104.799C144.854 106.385 145.239 108.616 146.837 109.877L177.616 134.164C179.327 135.514 181.805 135.317 183.14 133.726L217.932 92.2629C219.268 90.6716 218.963 88.2788 217.252 86.9289Z" fill="#EAEAEC" fill-opacity="0.24"/>
<path d="M60.1904 103.644L52.017 128.839L44.3837 128.839L39.5589 113.506L34.5181 128.839L26.8848 128.839L18.7114 103.644L26.0567 103.644L31.1335 119.733L36.4624 103.644L43.0155 103.644L48.0924 119.877L53.3853 103.644L60.1904 103.644ZM70.7728 129.163C68.6845 129.163 66.8002 128.731 65.1199 127.868C63.4396 127.004 62.1194 125.804 61.1592 124.268C60.223 122.732 59.755 120.993 59.755 119.049C59.755 117.129 60.223 115.402 61.1592 113.866C62.1194 112.33 63.4276 111.142 65.0839 110.303C66.7642 109.439 68.6605 109.007 70.7728 109.007C72.8852 109.007 74.7815 109.439 76.4618 110.303C78.1421 111.142 79.4503 112.33 80.3865 113.866C81.3226 115.378 81.7907 117.105 81.7907 119.049C81.7907 120.993 81.3226 122.732 80.3865 124.268C79.4503 125.804 78.1421 127.004 76.4618 127.868C74.7815 128.731 72.8852 129.163 70.7728 129.163ZM70.7728 123.728C71.973 123.728 72.9572 123.32 73.7253 122.504C74.4935 121.665 74.8775 120.513 74.8775 119.049C74.8775 117.609 74.4935 116.482 73.7253 115.666C72.9572 114.85 71.973 114.442 70.7728 114.442C69.5726 114.442 68.5885 114.85 67.8203 115.666C67.0522 116.482 66.6681 117.609 66.6681 119.049C66.6681 120.513 67.0522 121.665 67.8203 122.504C68.5885 123.32 69.5726 123.728 70.7728 123.728ZM91.4769 111.67C92.173 110.782 93.0732 110.123 94.1773 109.691C95.3055 109.235 96.5897 109.007 98.03 109.007L98.03 115.162C97.4059 115.09 96.8898 115.054 96.4817 115.054C95.0175 115.054 93.8653 115.45 93.0251 116.242C92.209 117.033 91.8009 118.245 91.8009 119.877L91.8009 128.839L84.9598 128.839L84.9598 109.331L91.4769 109.331L91.4769 111.67ZM109.711 122.001L107.694 124.052L107.694 128.839L100.853 128.839L100.853 102.132L107.694 102.132L107.694 116.134L114.679 109.331L122.781 109.331L114.679 117.681L123.465 128.839L115.184 128.839L109.711 122.001Z" fill="white"/>
<path d="M125.861 103.644L132.99 103.644L132.99 123.188L145.016 123.188L145.016 128.839L125.861 128.839L125.861 103.644ZM147.513 109.331L154.354 109.331L154.354 128.839L147.513 128.839L147.513 109.331ZM150.934 107.171C149.686 107.171 148.678 106.823 147.909 106.127C147.141 105.431 146.757 104.568 146.757 103.536C146.757 102.504 147.141 101.64 147.909 100.944C148.678 100.248 149.686 99.9003 150.934 99.9003C152.182 99.9003 153.19 100.236 153.958 100.908C154.727 101.556 155.111 102.396 155.111 103.428C155.111 104.508 154.727 105.407 153.958 106.127C153.19 106.823 152.182 107.171 150.934 107.171ZM165.894 129.163C164.261 129.163 162.653 128.983 161.069 128.623C159.484 128.24 158.212 127.748 157.252 127.148L159.304 122.469C160.193 123.02 161.249 123.464 162.473 123.8C163.697 124.112 164.909 124.268 166.11 124.268C167.214 124.268 167.994 124.16 168.45 123.944C168.93 123.704 169.17 123.368 169.17 122.936C169.17 122.504 168.882 122.205 168.306 122.037C167.754 121.845 166.866 121.665 165.642 121.497C164.081 121.305 162.749 121.053 161.645 120.741C160.565 120.429 159.629 119.853 158.836 119.013C158.044 118.173 157.648 116.997 157.648 115.486C157.648 114.238 158.02 113.134 158.764 112.174C159.508 111.19 160.589 110.423 162.005 109.871C163.445 109.295 165.161 109.007 167.154 109.007C168.57 109.007 169.974 109.151 171.366 109.439C172.759 109.727 173.923 110.135 174.859 110.662L172.807 115.306C171.078 114.346 169.206 113.866 167.19 113.866C166.11 113.866 165.317 113.998 164.813 114.262C164.309 114.502 164.057 114.826 164.057 115.234C164.057 115.69 164.333 116.014 164.885 116.206C165.437 116.374 166.35 116.554 167.622 116.745C169.23 116.985 170.562 117.261 171.619 117.573C172.675 117.885 173.587 118.461 174.355 119.301C175.147 120.117 175.543 121.269 175.543 122.756C175.543 123.98 175.171 125.084 174.427 126.068C173.683 127.028 172.579 127.784 171.114 128.336C169.674 128.887 167.934 129.163 165.894 129.163ZM191.957 128.048C191.381 128.408 190.673 128.683 189.833 128.875C189.017 129.067 188.141 129.163 187.205 129.163C184.66 129.163 182.704 128.539 181.336 127.292C179.967 126.044 179.283 124.184 179.283 121.713L179.283 115.162L176.439 115.162L176.439 110.051L179.283 110.051L179.283 104.975L186.124 104.975L186.124 110.051L190.589 110.051L190.589 115.162L186.124 115.162L186.124 121.641C186.124 122.337 186.305 122.888 186.665 123.296C187.049 123.68 187.553 123.872 188.177 123.872C188.969 123.872 189.665 123.668 190.265 123.26L191.957 128.048Z" fill="#EF3A5F"/>
</svg>